<?xml version="1.0" encoding="UTF-8"?>
<svg id="Layer_1" xmlns="http://www.w3.org/2000/svg" version="1.1" viewBox="0 0 50 50">
  <!-- Generator: Adobe Illustrator 29.0.1, SVG Export Plug-In . SVG Version: 2.1.0 Build 192)  -->
  <defs>
    <style>
      .st0 {
        fill: #fff;
      }

      .st1 {
        fill: #008efa;
      }
    </style>
  </defs>
  <g id="Snapp_Pay__x21_">
    <rect class="st1" x="1" y="1" width="48" height="48" rx="14.1" ry="14.1"/>
    <g>
      <polygon class="st0" points="20.3 39.4 22.4 35.5 19.5 30.2 22 30.2 23.6 33.3 25.3 30.2 27.7 30.2 22.8 39.4 20.3 39.4"/>
      <path class="st0" d="M45.7,14.8h0c0,.2,0,.3,0,.3-.4,1.4-.7,3.1-1.2,4.5s-.6.9-1,.9h-1.5l1.5-5.7h2.2Z"/>
      <path class="st0" d="M6.7,33.3v3s0,0,0,0h-2.3v-9.1c1.5,0,3.2-.2,4.7.1s2.5,2.3,2.1,4-2.7,2-4.4,2ZM6.7,31.4h1.2c0,0,.4-.1.5-.2.5-.4.5-1.3.1-1.7s-.5-.3-.7-.3h-1.1v2.2Z"/>
      <path class="st0" d="M35.9,23.3v1.9c0,.4-.3.9-.7,1s-.3.2-.4.2h-1.2v-8.7h2.1s0,0,0,0v.6l.3-.4c2.9-1.8,5.7,1.7,4.2,4.5s-3.1,2.1-4.5.8ZM37,19.4c-1.6.2-1.6,2.6-.1,2.7,2.3.3,2.2-3,.1-2.7Z"/>
      <path class="st0" d="M28.3,23.3v1.9c0,.4-.3.9-.7,1.1s-.3.2-.4.2h-1.2v-8.7h2.1s0,0,0,0v.6l.4-.5c2.7-1.5,5.2,1.3,4.3,4s-3.2,2.8-4.8,1.4ZM28.6,21.8c.7.7,2.1.4,2.4-.5s-.7-2.2-1.8-1.8-1.2,1.6-.5,2.3Z"/>
      <path class="st0" d="M5.3,21.2l1,.7c.6.3,1.9.4,2.2-.3.4-1.1-1.5-1.3-2.2-1.6-1.2-.5-1.7-1.2-1.6-2.6.2-3.1,3.8-3.3,5.9-2-.2.6-.6,1.3-1.3,1.4s-1.6-.5-2.1.2c-.7,1,1.4,1.4,1.9,1.6,1.4.5,2,1.4,1.8,2.9-.4,3.2-4.6,3.3-6.6,1.6l1-1.9Z"/>
      <path class="st0" d="M16.7,35.7c-1.2,1.4-3.4,1-4.4-.4s-.7-3.8.8-4.8,2.6-.7,3.6.3v-.6h2.2v6.2h-2.2v-.7ZM15.2,31.8c-1.8.2-1.5,3,.4,2.8s1.5-3-.4-2.8Z"/>
      <path class="st0" d="M23.3,23.2c-.1,0,0,0-.1,0-1.5,1.7-4.1.6-4.7-1.4s1.5-5.2,4.1-4.1l.7.5v-.6h2.1v5.2c0,.3-.7,1-1,1h-1.1v-.7ZM21.8,19.4c-1.6.1-1.6,2.5-.2,2.7,2.3.3,2.2-2.9.2-2.7Z"/>
      <path class="st0" d="M15.7,23.9v-3.8c0,0-.2-.4-.2-.5-.3-.4-1-.4-1.4-.1-1,.7,0,3-.8,3.9s-.6.5-.8.5h-1.1v-6.1s0,0,0,0h2.1s0,0,0,0v.7c.4-.6,1-.9,1.7-1,1.5-.1,2.5.6,2.6,2.1s0,2.4,0,3.1-.3.7-.7.9-.3.2-.4.2h-1.2Z"/>
      <path class="st0" d="M42.4,21.3c2.1-.3,2.2,2.7.3,2.7s-1.9-2.5-.3-2.7Z"/>
      <path class="st0" d="M42.6,15.4h-.1s0-.4,0-.4c0,0,0,.4-.2.4s0-.4-.2-.4v.4s-.1,0-.1,0c0-.2-.1-.7.2-.6s0,.3.2.3c0-.2,0-.4.3-.3v.6Z"/>
      <path class="st0" d="M41.8,14.9c-.3,0-.1.3-.2.5-.3.1-.1-.4-.2-.5s-.2,0-.2,0c.1-.1.5-.1.5,0Z"/>
    </g>
  </g>
</svg>