<?xml version="1.0" encoding="utf-8"?>
<!-- Generator: Adobe Illustrator 29.0.1, SVG Export Plug-In . SVG Version: 9.03 Build 54978)  -->
<svg version="1.1" baseProfile="basic" id="Layer_1"
	 xmlns="http://www.w3.org/2000/svg" xmlns:xlink="http://www.w3.org/1999/xlink" x="0px" y="0px" viewBox="0 0 50 50"
	 xml:space="preserve">
<style type="text/css">
	.st0{fill:#BD274C;}
	.st1{fill:#FFFFFF;}
</style>
<path class="st0" d="M15.1,1h19.8C42.7,1,49,7.3,49,15.1v19.8C49,42.7,42.7,49,34.9,49H15.1C7.3,49,1,42.7,1,34.9V15.1
	C1,7.3,7.3,1,15.1,1z"/>
<path class="st1" d="M38.8,22c-0.5,1.5-1,3.1-2.2,4.8l0,0c-3,4.2-6.7,7.8-10.9,10.7c-0.2,0.2-0.5,0.2-0.8,0.2s-0.5,0-0.8-0.2
	c-4.2-2.9-7.9-6.5-10.9-10.7c-1.2-1.6-2-3.2-2.5-4.8c-0.6-2-0.6-3.9,0.1-5.6c0.7-1.7,2.1-3,3.9-3.6c1.7-0.6,3.6-0.6,5.2,0
	c1.8,0.7,3.5,2,4.9,3.9c1.4-1.9,3-3.2,4.9-3.9c1.6-0.6,3.5-0.6,5.2,0c1.8,0.7,3.2,1.9,3.9,3.6S39.5,19.9,38.8,22L38.8,22L38.8,22z"
	/>
</svg>
